<?xml version="1.0" encoding="UTF-8"?>
<!--
  Product imagined: macro close-up of a single printed StemDomeZ cap
  on a workshop bench. The threading is visible inside the cavity. The
  layer lines are emphasised because the press-kit user wants to see
  what an FDM print actually looks like.
-->
<svg xmlns="http://www.w3.org/2000/svg" viewBox="0 0 1600 900" width="1600" height="900" role="img" aria-label="StemDomeZ printed cap close-up">
  <!-- workshop paper -->
  <rect width="1600" height="900" fill="#E5E0CC"/>
  <!-- workbench shadow under the cap -->
  <ellipse cx="800" cy="750" rx="500" ry="48" fill="#0E0A12" fill-opacity="0.08"/>

  <!-- tilted cap (3/4 view) — main body -->
  <g transform="translate(440 200)">
    <!-- cap body main fill -->
    <rect x="0"   y="120" width="720" height="380" rx="42" fill="#7B2EFF"/>
    <!-- right-side darker chamfer -->
    <path d="M 720 120 L 720 500 Q 690 480 690 260 Q 690 160 720 120 Z" fill="#5A1FCE"/>
    <!-- top oval (cap looks 3D) -->
    <ellipse cx="360" cy="120" rx="360" ry="64" fill="#A267FF"/>
    <ellipse cx="360" cy="120" rx="320" ry="50" fill="#F5F2E5" fill-opacity="0.18"/>
    <!-- threading bands at the bottom (visible socket) -->
    <g fill="#7C1414">
      <rect x="0" y="450" width="720" height="8"/>
      <rect x="0" y="468" width="720" height="8"/>
      <rect x="0" y="486" width="720" height="8"/>
    </g>
    <!-- FDM layer lines — the unmistakable signature of a 3D print -->
    <g stroke="#5A1FCE" stroke-width="2" stroke-opacity="0.55">
      <line x1="0" y1="160" x2="720" y2="160"/>
      <line x1="0" y1="184" x2="720" y2="184"/>
      <line x1="0" y1="208" x2="720" y2="208"/>
      <line x1="0" y1="232" x2="720" y2="232"/>
      <line x1="0" y1="256" x2="720" y2="256"/>
      <line x1="0" y1="280" x2="720" y2="280"/>
      <line x1="0" y1="304" x2="720" y2="304"/>
      <line x1="0" y1="328" x2="720" y2="328"/>
      <line x1="0" y1="352" x2="720" y2="352"/>
      <line x1="0" y1="376" x2="720" y2="376"/>
      <line x1="0" y1="400" x2="720" y2="400"/>
      <line x1="0" y1="424" x2="720" y2="424"/>
    </g>

    <!-- printed head riding on top of the cap -->
    <g transform="translate(180 -160)" fill="#0E0A12">
      <circle cx="180" cy="180" r="170"/>
      <path d="M 22 220 Q 180 360 338 220 L 338 290 Q 180 348 22 290 Z"/>
      <rect x="62" y="280" width="232" height="38" rx="14"/>
      <!-- layer lines on the head too — same FDM signature -->
      <g stroke="#3A3530" stroke-width="2" stroke-opacity="0.55">
        <line x1="20" y1="120" x2="340" y2="120"/>
        <line x1="20" y1="148" x2="340" y2="148"/>
        <line x1="20" y1="176" x2="340" y2="176"/>
        <line x1="20" y1="204" x2="340" y2="204"/>
        <line x1="20" y1="232" x2="340" y2="232"/>
        <line x1="20" y1="260" x2="340" y2="260"/>
      </g>
    </g>
  </g>

  <!-- millimeter scale callout in the corner -->
  <g transform="translate(60 760)" font-family="ui-monospace, monospace" fill="#0E0A12">
    <rect x="0" y="0" width="160" height="44" rx="8" fill="#F5F2E5" stroke="#0E0A12" stroke-opacity="0.18"/>
    <line x1="14" y1="22" x2="146" y2="22" stroke="#0E0A12" stroke-width="2"/>
    <line x1="14" y1="14" x2="14" y2="30" stroke="#0E0A12" stroke-width="2"/>
    <line x1="146" y1="14" x2="146" y2="30" stroke="#0E0A12" stroke-width="2"/>
    <text x="80" y="28" font-size="14" text-anchor="middle">≈ 30 mm</text>
  </g>

  <!-- caption -->
  <g font-family="-apple-system, system-ui, 'Inter', sans-serif" fill="#3D2F4A">
    <text x="60" y="850" font-size="18" letter-spacing="2">PRESS&#160;KIT&#160;·&#160;PRODUCT&#160;02&#160;·&#160;PRINTED&#160;CAP&#160;CLOSE-UP&#160;(FDM,&#160;PLA,&#160;0.16&#160;mm&#160;layers)</text>
  </g>
</svg>
